<svg xmlns="http://www.w3.org/2000/svg" viewBox="0 0 32 32" width="32" height="32">
  <defs>
    <linearGradient id="awsGradient" x1="0%" y1="0%" x2="100%" y2="100%">
      <stop offset="0%" style="stop-color:#FF9900;stop-opacity:1" />
      <stop offset="100%" style="stop-color:#FF6600;stop-opacity:1" />
    </linearGradient>
  </defs>
  
  <!-- Background circle -->
  <circle cx="16" cy="16" r="15" fill="url(#awsGradient)" stroke="#FF3300" stroke-width="1"/>
  
  <!-- Cloud shape representing AWS -->
  <path d="M8 18c-1.1 0-2-.9-2-2s.9-2 2-2c.2-1.7 1.6-3 3.3-3 1.3 0 2.4.7 3 1.7.4-.2.8-.3 1.2-.3 1.7 0 3 1.3 3 3 0 .2 0 .4-.1.6.9.4 1.6 1.3 1.6 2.3 0 1.4-1.1 2.7-2.5 2.7H8z" 
        fill="white" opacity="0.9"/>
  
  <!-- Architecture nodes -->
  <circle cx="11" cy="14" r="1.5" fill="#232F3E"/>
  <circle cx="16" cy="12" r="1.5" fill="#232F3E"/>
  <circle cx="21" cy="14" r="1.5" fill="#232F3E"/>
  <circle cx="16" cy="20" r="1.5" fill="#232F3E"/>
  
  <!-- Connection lines -->
  <line x1="11" y1="14" x2="16" y2="12" stroke="#232F3E" stroke-width="1.5"/>
  <line x1="16" y1="12" x2="21" y2="14" stroke="#232F3E" stroke-width="1.5"/>
  <line x1="11" y1="14" x2="16" y2="20" stroke="#232F3E" stroke-width="1.5"/>
  <line x1="21" y1="14" x2="16" y2="20" stroke="#232F3E" stroke-width="1.5"/>
</svg>
