<svg xmlns="http://www.w3.org/2000/svg" viewBox="0 0 32 32" width="32" height="32">
  <!-- Background -->
  <rect width="32" height="32" fill="#000000" rx="4"/>
  
  <!-- Cloud outline -->
  <path d="M8 18c-1.1 0-2-.9-2-2s.9-2 2-2c.2-1.7 1.6-3 3.3-3 1.3 0 2.4.7 3 1.7.4-.2.8-.3 1.2-.3 1.7 0 3 1.3 3 3 0 .2 0 .4-.1.6.9.4 1.6 1.3 1.6 2.3 0 1.4-1.1 2.7-2.5 2.7H8z" 
        fill="none" stroke="#ffffff" stroke-width="1.5"/>
  
  <!-- Architecture nodes -->
  <circle cx="11" cy="14" r="2" fill="#ffffff"/>
  <circle cx="16" cy="12" r="2" fill="#ffffff"/>
  <circle cx="21" cy="14" r="2" fill="#ffffff"/>
  <circle cx="16" cy="20" r="2" fill="#ffffff"/>
  
  <!-- Inner dots for nodes -->
  <circle cx="11" cy="14" r="0.8" fill="#000000"/>
  <circle cx="16" cy="12" r="0.8" fill="#000000"/>
  <circle cx="21" cy="14" r="0.8" fill="#000000"/>
  <circle cx="16" cy="20" r="0.8" fill="#000000"/>
  
  <!-- Connection lines -->
  <line x1="13" y1="14" x2="14" y2="12.5" stroke="#ffffff" stroke-width="2"/>
  <line x1="18" y1="12.5" x2="19" y2="14" stroke="#ffffff" stroke-width="2"/>
  <line x1="13" y1="15" x2="14.5" y2="19" stroke="#ffffff" stroke-width="2"/>
  <line x1="18.5" y1="15" x2="17.5" y2="19" stroke="#ffffff" stroke-width="2"/>
</svg>
